<svg width="212" height="69" viewBox="0 0 212 69" fill="none" xmlns="http://www.w3.org/2000/svg">
<g filter="url(#filter0_d_207_8)">
<rect x="1" y="1" width="61" height="61" rx="12" fill="#D9D9D9"/>
</g>
<rect x="7.5" y="7.5" width="48" height="48" rx="9.5" stroke="#E2E2E2" stroke-width="5"/>
<path d="M80.445 20.1C81.205 20.1 81.855 20.23 82.395 20.49C82.935 20.74 83.35 21.105 83.64 21.585C83.94 22.055 84.09 22.625 84.09 23.295C84.09 23.965 83.94 24.54 83.64 25.02C83.35 25.49 82.935 25.855 82.395 26.115C81.855 26.365 81.205 26.49 80.445 26.49H78.36V30H76.29V20.1H80.445ZM80.13 24.855C80.75 24.855 81.215 24.725 81.525 24.465C81.835 24.195 81.99 23.805 81.99 23.295C81.99 22.775 81.835 22.385 81.525 22.125C81.215 21.865 80.75 21.735 80.13 21.735H78.36V24.855H80.13ZM92.3068 22.35C93.0668 22.35 93.7318 22.505 94.3018 22.815C94.8818 23.125 95.3318 23.57 95.6518 24.15C95.9818 24.73 96.1468 25.43 96.1468 26.25C96.1468 27.06 95.9818 27.76 95.6518 28.35C95.3318 28.93 94.8818 29.375 94.3018 29.685C93.7318 29.995 93.0668 30.15 92.3068 30.15C91.5568 30.15 90.8918 29.995 90.3118 29.685C89.7318 29.375 89.2768 28.93 88.9468 28.35C88.6268 27.76 88.4668 27.06 88.4668 26.25C88.4668 25.43 88.6268 24.73 88.9468 24.15C89.2768 23.57 89.7318 23.125 90.3118 22.815C90.8918 22.505 91.5568 22.35 92.3068 22.35ZM92.3068 23.88C91.9268 23.88 91.6018 23.97 91.3318 24.15C91.0718 24.32 90.8718 24.58 90.7318 24.93C90.5918 25.28 90.5218 25.72 90.5218 26.25C90.5218 26.78 90.5918 27.22 90.7318 27.57C90.8718 27.92 91.0718 28.185 91.3318 28.365C91.6018 28.535 91.9268 28.62 92.3068 28.62C92.6768 28.62 92.9918 28.535 93.2518 28.365C93.5218 28.185 93.7268 27.92 93.8668 27.57C94.0068 27.22 94.0768 26.78 94.0768 26.25C94.0768 25.72 94.0068 25.28 93.8668 24.93C93.7268 24.58 93.5218 24.32 93.2518 24.15C92.9918 23.97 92.6768 23.88 92.3068 23.88ZM104.571 22.35C105.241 22.35 105.806 22.45 106.266 22.65C106.736 22.84 107.111 23.105 107.391 23.445C107.681 23.775 107.886 24.145 108.006 24.555L106.086 25.245C105.986 24.795 105.816 24.455 105.576 24.225C105.336 23.995 105.011 23.88 104.601 23.88C104.221 23.88 103.896 23.97 103.626 24.15C103.356 24.32 103.151 24.585 103.011 24.945C102.871 25.295 102.801 25.735 102.801 26.265C102.801 26.795 102.871 27.235 103.011 27.585C103.161 27.935 103.371 28.195 103.641 28.365C103.921 28.535 104.246 28.62 104.616 28.62C104.916 28.62 105.171 28.57 105.381 28.47C105.591 28.36 105.761 28.205 105.891 28.005C106.031 27.805 106.126 27.565 106.176 27.285L108.036 27.885C107.926 28.335 107.721 28.73 107.421 29.07C107.121 29.41 106.736 29.675 106.266 29.865C105.796 30.055 105.251 30.15 104.631 30.15C103.861 30.15 103.181 29.995 102.591 29.685C102.001 29.375 101.546 28.93 101.226 28.35C100.906 27.77 100.746 27.07 100.746 26.25C100.746 25.43 100.906 24.73 101.226 24.15C101.546 23.57 101.996 23.125 102.576 22.815C103.156 22.505 103.821 22.35 104.571 22.35ZM120.568 22.5L117.103 26.115L116.698 26.31L114.448 28.725L114.418 26.535L118.228 22.5H120.568ZM114.988 19.215V30H112.933V19.215H114.988ZM117.388 24.885L120.748 30H118.423L115.978 26.085L117.388 24.885ZM128.385 30.15C127.595 30.15 126.905 29.995 126.315 29.685C125.735 29.375 125.285 28.93 124.965 28.35C124.645 27.77 124.485 27.07 124.485 26.25C124.485 25.43 124.645 24.73 124.965 24.15C125.285 23.57 125.73 23.125 126.3 22.815C126.88 22.505 127.54 22.35 128.28 22.35C129.04 22.35 129.685 22.505 130.215 22.815C130.745 23.115 131.15 23.53 131.43 24.06C131.71 24.58 131.85 25.175 131.85 25.845C131.85 26.045 131.845 26.235 131.835 26.415C131.825 26.595 131.81 26.755 131.79 26.895H125.805V25.47H130.89L129.9 25.83C129.9 25.2 129.755 24.715 129.465 24.375C129.185 24.035 128.785 23.865 128.265 23.865C127.885 23.865 127.555 23.955 127.275 24.135C127.005 24.315 126.8 24.585 126.66 24.945C126.52 25.295 126.45 25.74 126.45 26.28C126.45 26.81 126.525 27.25 126.675 27.6C126.835 27.94 127.055 28.195 127.335 28.365C127.625 28.535 127.97 28.62 128.37 28.62C128.81 28.62 129.165 28.535 129.435 28.365C129.705 28.195 129.915 27.96 130.065 27.66L131.7 28.29C131.54 28.68 131.295 29.015 130.965 29.295C130.645 29.575 130.26 29.79 129.81 29.94C129.37 30.08 128.895 30.15 128.385 30.15ZM139.415 20.205V27.555C139.415 27.915 139.505 28.18 139.685 28.35C139.875 28.51 140.13 28.59 140.45 28.59C140.7 28.59 140.92 28.555 141.11 28.485C141.3 28.405 141.47 28.3 141.62 28.17L141.95 29.535C141.71 29.725 141.41 29.875 141.05 29.985C140.69 30.095 140.31 30.15 139.91 30.15C139.41 30.15 138.965 30.075 138.575 29.925C138.195 29.775 137.895 29.535 137.675 29.205C137.465 28.875 137.36 28.435 137.36 27.885V20.775L139.415 20.205ZM141.815 22.5V24.03H135.98V22.5H141.815ZM84.765 45.27C84.575 45.91 84.275 46.445 83.865 46.875C83.455 47.305 82.97 47.625 82.41 47.835C81.85 48.045 81.235 48.15 80.565 48.15C79.585 48.15 78.735 47.945 78.015 47.535C77.305 47.125 76.755 46.54 76.365 45.78C75.985 45.02 75.795 44.11 75.795 43.05C75.795 41.99 75.985 41.08 76.365 40.32C76.755 39.56 77.305 38.975 78.015 38.565C78.735 38.155 79.575 37.95 80.535 37.95C81.215 37.95 81.83 38.045 82.38 38.235C82.93 38.415 83.395 38.695 83.775 39.075C84.165 39.455 84.45 39.935 84.63 40.515L82.755 41.31C82.585 40.71 82.325 40.285 81.975 40.035C81.625 39.775 81.175 39.645 80.625 39.645C80.085 39.645 79.61 39.775 79.2 40.035C78.8 40.295 78.49 40.68 78.27 41.19C78.05 41.69 77.94 42.31 77.94 43.05C77.94 43.78 78.04 44.4 78.24 44.91C78.45 45.42 78.755 45.805 79.155 46.065C79.555 46.325 80.045 46.455 80.625 46.455C81.165 46.455 81.63 46.31 82.02 46.02C82.42 45.73 82.7 45.29 82.86 44.7L84.765 45.27ZM93.0393 40.35C93.7993 40.35 94.4643 40.505 95.0343 40.815C95.6143 41.125 96.0643 41.57 96.3843 42.15C96.7143 42.73 96.8793 43.43 96.8793 44.25C96.8793 45.06 96.7143 45.76 96.3843 46.35C96.0643 46.93 95.6143 47.375 95.0343 47.685C94.4643 47.995 93.7993 48.15 93.0393 48.15C92.2893 48.15 91.6243 47.995 91.0443 47.685C90.4643 47.375 90.0093 46.93 89.6793 46.35C89.3593 45.76 89.1993 45.06 89.1993 44.25C89.1993 43.43 89.3593 42.73 89.6793 42.15C90.0093 41.57 90.4643 41.125 91.0443 40.815C91.6243 40.505 92.2893 40.35 93.0393 40.35ZM93.0393 41.88C92.6593 41.88 92.3343 41.97 92.0643 42.15C91.8043 42.32 91.6043 42.58 91.4643 42.93C91.3243 43.28 91.2543 43.72 91.2543 44.25C91.2543 44.78 91.3243 45.22 91.4643 45.57C91.6043 45.92 91.8043 46.185 92.0643 46.365C92.3343 46.535 92.6593 46.62 93.0393 46.62C93.4093 46.62 93.7243 46.535 93.9843 46.365C94.2543 46.185 94.4593 45.92 94.5993 45.57C94.7393 45.22 94.8093 44.78 94.8093 44.25C94.8093 43.72 94.7393 43.28 94.5993 42.93C94.4593 42.58 94.2543 42.32 93.9843 42.15C93.7243 41.97 93.4093 41.88 93.0393 41.88ZM102.934 39.42C102.504 39.42 102.184 39.33 101.974 39.15C101.764 38.96 101.659 38.685 101.659 38.325C101.659 37.955 101.764 37.68 101.974 37.5C102.184 37.31 102.504 37.215 102.934 37.215C103.364 37.215 103.684 37.31 103.894 37.5C104.104 37.68 104.209 37.955 104.209 38.325C104.209 38.685 104.104 38.96 103.894 39.15C103.684 39.33 103.364 39.42 102.934 39.42ZM103.954 40.5V48H101.899V40.5H103.954ZM109.432 48V40.5H111.277L111.397 42.75L111.142 42.51C111.262 42.02 111.452 41.615 111.712 41.295C111.972 40.975 112.287 40.74 112.657 40.59C113.037 40.43 113.452 40.35 113.902 40.35C114.422 40.35 114.882 40.45 115.282 40.65C115.692 40.85 116.012 41.155 116.242 41.565C116.482 41.965 116.602 42.47 116.602 43.08V48H114.547V43.665C114.547 43.025 114.422 42.585 114.172 42.345C113.922 42.095 113.597 41.97 113.197 41.97C112.917 41.97 112.642 42.04 112.372 42.18C112.112 42.31 111.897 42.525 111.727 42.825C111.567 43.125 111.487 43.525 111.487 44.025V48H109.432Z" fill="#D9D9D9"/>
<path d="M31.7747 46.955C29.7947 46.955 27.9647 46.715 26.2847 46.235C24.6047 45.755 23.1047 45.095 21.7847 44.255C20.4947 43.415 19.4147 42.44 18.5447 41.33L21.9647 37.28C22.6247 38.3 23.4797 39.185 24.5297 39.935C25.5797 40.655 26.7647 41.225 28.0847 41.645C29.4047 42.035 30.7547 42.23 32.1347 42.23C33.9647 42.23 35.4047 41.93 36.4547 41.33C37.5047 40.73 38.0297 39.845 38.0297 38.675C38.0297 37.925 37.7297 37.28 37.1297 36.74C36.5597 36.2 35.5547 35.765 34.1147 35.435L27.8147 33.995C26.1347 33.605 24.6947 33.065 23.4947 32.375C22.2947 31.685 21.3797 30.845 20.7497 29.855C20.1497 28.835 19.8497 27.665 19.8497 26.345C19.8497 24.605 20.3147 23.06 21.2447 21.71C22.2047 20.36 23.5547 19.28 25.2947 18.47C27.0647 17.66 29.1947 17.255 31.6847 17.255C34.2947 17.255 36.5897 17.705 38.5697 18.605C40.5497 19.505 42.2297 20.84 43.6097 22.61L40.3697 26.345C39.1697 24.815 37.8347 23.705 36.3647 23.015C34.9247 22.295 33.2297 21.935 31.2797 21.935C29.9597 21.935 28.8797 22.1 28.0397 22.43C27.1997 22.73 26.5697 23.15 26.1497 23.69C25.7597 24.23 25.5647 24.845 25.5647 25.535C25.5647 26.075 25.6847 26.57 25.9247 27.02C26.1647 27.44 26.6147 27.815 27.2747 28.145C27.9647 28.475 28.9397 28.79 30.1997 29.09L35.5997 30.305C38.4197 30.935 40.4447 31.865 41.6747 33.095C42.9347 34.295 43.5647 35.9 43.5647 37.91C43.5647 39.83 43.0697 41.465 42.0797 42.815C41.0897 44.165 39.6947 45.2 37.8947 45.92C36.1247 46.61 34.0847 46.955 31.7747 46.955ZM29.6597 51.14V13.16H33.8447V51.14H29.6597Z" fill="#F0EEEE"/>
<defs>
<filter id="filter0_d_207_8" x="0" y="0" width="69" height="69" filterUnits="userSpaceOnUse" color-interpolation-filters="sRGB">
<feFlood flood-opacity="0" result="BackgroundImageFix"/>
<feColorMatrix in="SourceAlpha" type="matrix" values="0 0 0 0 0 0 0 0 0 0 0 0 0 0 0 0 0 0 127 0" result="hardAlpha"/>
<feOffset dx="3" dy="3"/>
<feGaussianBlur stdDeviation="2"/>
<feComposite in2="hardAlpha" operator="out"/>
<feColorMatrix type="matrix" values="0 0 0 0 0 0 0 0 0 0 0 0 0 0 0 0 0 0 0.25 0"/>
<feBlend mode="normal" in2="BackgroundImageFix" result="effect1_dropShadow_207_8"/>
<feBlend mode="normal" in="SourceGraphic" in2="effect1_dropShadow_207_8" result="shape"/>
</filter>
</defs>
</svg>
